<?xml version="1.0" standalone="no"?>
<!DOCTYPE svg PUBLIC "-//W3C//DTD SVG 20010904//EN"
 "http://www.w3.org/TR/2001/REC-SVG-20010904/DTD/svg10.dtd">
<svg version="1.0" xmlns="http://www.w3.org/2000/svg"
 width="506.000000pt" height="266.000000pt" viewBox="0 0 506.000000 266.000000"
 preserveAspectRatio="xMidYMid meet">

<g transform="translate(0.000000,266.000000) scale(0.100000,-0.100000)"
fill="#000000" stroke="none">
<path d="M1520 2233 c-84 -14 -227 -60 -307 -97 -94 -45 -236 -138 -307 -201
l-39 -35 121 0 122 0 83 65 c91 72 249 156 342 180 33 9 96 19 141 22 131 9
174 -28 174 -149 0 -86 -38 -164 -124 -255 -36 -39 -66 -74 -66 -78 0 -4 48
-5 106 -3 l106 3 35 40 c20 22 51 73 71 113 86 179 36 340 -119 386 -50 15
-270 21 -339 9z"/>
<path d="M750 1835 c-17 -20 -5 -45 20 -45 11 0 23 7 26 15 6 15 -11 45 -26
45 -4 0 -13 -7 -20 -15z"/>
<path d="M1055 1840 c-16 -4 -22 -8 -12 -9 22 -1 23 0 -18 -161 -40 -159 -42
-173 -18 -168 11 2 22 24 34 71 9 37 22 74 29 82 6 8 9 18 6 23 -3 5 3 40 14
78 29 101 30 100 -35 84z"/>
<path d="M902 1785 c-10 -39 -16 -45 -39 -46 -24 -2 -25 -2 -5 -6 27 -5 27
-11 2 -91 -24 -75 -25 -102 -6 -127 12 -16 18 -17 39 -8 24 11 64 69 54 79 -2
3 -10 -9 -17 -26 -11 -27 -36 -50 -54 -50 -12 0 -5 37 22 125 26 83 30 91 58
96 l29 7 -29 1 c-22 1 -27 4 -21 19 3 9 9 29 12 45 4 22 2 27 -14 27 -14 0
-22 -11 -31 -45z"/>
<path d="M706 1719 c-14 -17 -26 -36 -26 -42 0 -7 9 3 20 21 20 33 50 43 50
17 0 -8 -9 -38 -20 -67 -23 -60 -26 -108 -8 -126 27 -27 66 -5 87 51 16 40 4
33 -19 -13 -22 -44 -50 -54 -50 -17 0 12 9 46 20 75 24 63 25 95 4 116 -22 22
-29 20 -58 -15z"/>
<path d="M368 1723 c-30 -36 -30 -47 0 -19 18 16 35 26 39 23 3 -4 -6 -36 -20
-72 -31 -74 -34 -117 -11 -139 8 -9 18 -16 20 -16 17 0 48 26 64 53 l20 32 0
-27 c0 -18 8 -33 24 -43 22 -15 27 -15 54 -1 66 34 97 97 90 181 -2 30 -8 41
-22 43 -10 2 -22 -2 -27 -10 -11 -16 -11 -20 0 -37 8 -12 12 -12 25 -2 14 12
16 9 16 -20 -1 -48 -41 -120 -78 -142 -60 -35 -67 -1 -23 127 l29 86 -23 0
c-20 0 -27 -10 -45 -67 -35 -109 -85 -181 -108 -158 -3 3 6 43 21 88 30 91 32
108 15 125 -17 17 -42 15 -60 -5z"/>
<path d="M1108 1723 c-30 -36 -30 -47 0 -19 39 36 50 28 34 -27 -33 -113 -37
-146 -20 -163 9 -9 24 -14 35 -10 18 6 53 54 53 73 0 4 -9 -7 -20 -24 -11 -18
-27 -33 -35 -33 -19 0 -19 5 5 75 32 92 24 145 -20 145 -9 0 -24 -8 -32 -17z"/>
<path d="M2017 1645 c-63 -111 -80 -158 -65 -190 9 -21 4 -35 -47 -119 -31
-52 -54 -100 -50 -105 3 -6 17 -11 31 -11 19 0 36 18 86 94 l63 94 50 6 c27 3
64 9 80 12 l30 7 -26 -29 c-54 -58 -192 -258 -220 -317 -118 -251 129 -338
355 -126 l63 58 11 -38 c16 -52 46 -87 95 -112 85 -44 174 -20 284 77 l51 43
6 -37 c11 -73 63 -112 149 -112 68 0 114 25 198 107 l77 74 6 -36 c9 -46 60
-103 115 -128 32 -14 66 -19 125 -19 133 1 237 48 325 148 27 30 42 42 45 33
3 -8 9 -30 16 -50 15 -51 72 -104 128 -120 110 -31 261 -2 354 66 56 41 128
126 208 246 68 100 75 129 32 129 -25 0 -37 -13 -98 -106 -102 -158 -216 -254
-318 -271 -64 -10 -116 48 -116 130 0 33 3 35 71 62 149 58 286 177 349 302
36 70 33 118 -9 155 -32 29 -36 30 -115 26 -71 -3 -93 -8 -160 -41 -128 -64
-246 -192 -307 -334 -58 -136 -225 -285 -337 -300 -70 -9 -112 50 -112 160 0
99 101 293 196 376 37 33 107 70 131 71 23 0 32 -34 21 -79 -13 -53 -1 -70 36
-53 36 16 57 54 58 103 0 36 -5 48 -32 72 -31 28 -36 29 -114 25 -71 -3 -93
-8 -159 -41 -127 -63 -247 -193 -306 -331 -43 -99 -152 -230 -223 -267 -31
-16 -37 -16 -42 -4 -9 25 12 112 49 205 19 48 35 96 35 107 0 47 -98 121 -144
109 -17 -4 -25 -20 -38 -78 -20 -82 -56 -141 -150 -243 -86 -93 -136 -116
-172 -76 -82 91 86 458 246 539 88 43 132 22 151 -73 12 -60 12 -60 47 -60
l35 0 -1 57 c-1 63 -23 109 -67 142 -24 17 -43 21 -110 21 -70 0 -91 -5 -147
-31 -132 -62 -244 -181 -328 -348 -68 -134 -197 -261 -259 -254 -67 8 -25 107
133 308 158 203 186 258 147 292 -46 40 -59 40 -125 4 -70 -39 -198 -90 -205
-82 -3 3 11 28 31 55 59 80 51 122 -31 168 l-38 21 -48 -83z m2391 -172 c3
-46 -19 -90 -90 -175 -57 -69 -248 -191 -248 -159 0 28 47 128 89 193 54 83
115 141 175 169 58 27 70 22 74 -28z"/>
<path d="M1700 1570 c0 -29 -48 -163 -125 -347 -66 -160 -68 -164 -140 -232
-139 -131 -331 -220 -481 -221 -68 0 -148 41 -191 98 -18 24 -33 48 -33 53 0
34 180 64 345 57 113 -5 124 -4 116 11 -14 25 -53 59 -83 70 -36 14 -230 -3
-328 -28 -41 -10 -78 -17 -82 -14 -13 7 -9 120 8 201 9 42 28 110 44 150 l28
72 -109 0 -109 0 -11 -27 c-53 -141 -72 -317 -44 -426 l17 -68 -61 -64 c-38
-40 -74 -89 -94 -132 -28 -59 -32 -79 -32 -148 0 -65 5 -89 24 -127 68 -132
211 -198 432 -198 138 0 235 21 354 79 288 138 463 410 705 1099 l19 52 -36
36 c-68 68 -133 95 -133 54z m-311 -752 c-76 -151 -214 -322 -315 -391 -107
-73 -168 -92 -299 -92 -100 0 -115 2 -161 27 -61 32 -117 92 -134 143 -20 60
-9 162 24 227 16 32 39 67 52 79 l22 21 47 -36 c118 -90 297 -116 480 -70 60
15 242 98 280 127 28 22 29 15 4 -35z"/>
</g>
</svg>
